<?xml version="1.0" standalone="no"?>
<!DOCTYPE svg PUBLIC "-//W3C//DTD SVG 20010904//EN"
 "http://www.w3.org/TR/2001/REC-SVG-20010904/DTD/svg10.dtd">
<svg version="1.0" xmlns="http://www.w3.org/2000/svg"
 width="225.000000pt" height="225.000000pt" viewBox="0 0 225.000000 225.000000"
 preserveAspectRatio="xMidYMid meet">
<metadata>
Created by potrace 1.11, written by Peter Selinger 2001-2013
</metadata>
<g transform="translate(0.000000,225.000000) scale(0.100000,-0.100000)"
fill="#000000" stroke="none">
<path d="M860 2184 c0 -4 16 -26 35 -50 19 -23 35 -45 35 -48 0 -3 -42 -7 -92
-9 -51 -1 46 -4 217 -5 l310 -2 17 28 c9 15 29 42 44 60 l27 32 -297 0 c-163
0 -296 -3 -296 -6z m559 -21 c-7 -10 -24 -30 -38 -45 l-25 -28 -207 0 -207 0
-36 45 -37 45 282 0 c266 0 281 -1 268 -17z"/>
<path d="M1418 2073 c23 -2 59 -2 80 0 20 2 1 4 -43 4 -44 0 -61 -2 -37 -4z"/>
<path d="M1548 2073 c8 -3 12 -36 12 -117 l0 -111 -396 -3 c-321 -3 -399 -1
-405 10 -5 7 -9 56 -9 108 l0 95 -157 -5 c-121 -4 -165 -9 -188 -22 -70 -38
-105 -104 -105 -199 l0 -61 -35 31 c-20 17 -42 31 -49 31 -31 0 -136 -95 -136
-124 0 -14 92 -129 165 -208 l55 -59 0 -587 c0 -549 2 -590 19 -627 22 -48 54
-79 103 -100 33 -13 127 -15 730 -15 654 0 695 1 733 19 51 24 101 77 112 118
9 35 -3 1605 -12 1661 -8 42 -59 100 -110 123 -32 15 -66 19 -172 19 -112 0
-133 2 -133 15 0 8 -8 15 -17 14 -11 0 -13 -3 -5 -6z m359 -81 c23 -18 46 -47
52 -65 6 -20 14 -343 20 -841 10 -787 10 -810 -9 -852 -13 -31 -33 -53 -66
-74 l-48 -30 -705 0 -706 0 -40 23 c-23 13 -49 40 -63 64 -22 41 -22 41 -20
459 l3 419 31 -60 c17 -33 36 -59 42 -58 7 2 12 -8 12 -21 0 -13 7 -26 15 -30
8 -3 15 0 15 7 0 8 4 6 10 -3 5 -8 11 -44 12 -80 1 -36 5 41 8 170 l5 234 250
-272 c138 -150 279 -305 314 -345 156 -176 205 -221 297 -271 49 -27 120 -69
158 -93 37 -24 69 -43 70 -41 1 2 -20 44 -47 93 -42 78 -52 91 -32 42 3 -7 -4
-22 -15 -32 -20 -19 -22 -18 -75 10 -29 16 -52 33 -49 36 2 4 -5 10 -16 14
-11 4 -18 11 -14 16 3 5 10 6 16 3 7 -4 8 -2 4 4 -4 6 -14 8 -23 5 -11 -4 -14
-3 -9 5 5 8 2 10 -8 6 -25 -10 -19 3 26 54 l42 47 -55 -53 c-30 -28 -57 -52
-60 -52 -4 0 -75 76 -160 168 -85 92 -278 302 -429 466 -151 163 -285 309
-297 324 l-22 27 74 68 73 67 234 -253 c128 -139 330 -358 448 -486 170 -184
223 -247 252 -304 20 -40 37 -69 38 -65 1 16 -59 135 -75 148 -10 8 -72 75
-138 150 -66 74 -155 171 -198 215 -42 44 -100 107 -129 140 -29 33 -87 96
-129 140 -151 159 -286 308 -303 334 -15 22 -18 49 -18 164 l0 137 135 0 c128
0 135 -1 135 -20 0 -20 7 -20 415 -20 l415 0 1 28 c1 15 1 60 1 100 l-1 73
147 -3 148 -3 41 -33z m-1654 -210 l27 -29 -61 -58 -62 -59 -29 33 c-28 31
-28 34 -11 48 10 8 11 11 3 7 -23 -13 32 52 60 70 34 21 42 20 73 -12z m141
-136 l81 -88 -65 -59 c-36 -32 -70 -58 -77 -59 -17 0 -64 60 -57 72 4 6 3 8
-2 5 -11 -6 -106 88 -102 100 2 4 7 7 11 5 5 -1 6 2 3 7 -7 11 104 113 118
108 5 -2 46 -43 90 -91z m33 -668 c-3 -8 -6 -5 -6 6 -1 11 2 17 5 13 3 -3 4
-12 1 -19z"/>
<path d="M1660 1548 c-19 -16 -26 -26 -15 -20 18 9 64 53 54 52 -2 -1 -20 -15
-39 -32z"/>
<path d="M1550 1545 c0 -8 4 -15 10 -15 5 0 7 7 4 15 -4 8 -8 15 -10 15 -2 0
-4 -7 -4 -15z"/>
<path d="M1566 1507 c3 -10 9 -15 12 -12 3 3 0 11 -7 18 -10 9 -11 8 -5 -6z"/>
<path d="M1606 1501 c-4 -5 -2 -12 3 -15 5 -4 12 -2 15 3 4 5 2 12 -3 15 -5 4
-12 2 -15 -3z"/>
<path d="M1545 1220 c-3 -5 1 -20 9 -31 15 -22 15 -22 13 -1 0 11 -5 18 -11
15 -5 -4 -7 1 -3 10 7 19 2 23 -8 7z"/>
<path d="M1640 1205 c-7 -9 -11 -17 -9 -20 3 -2 10 5 17 15 14 24 10 26 -8 5z"/>
<path d="M1699 913 l-24 -28 28 24 c25 23 32 31 24 31 -2 0 -14 -12 -28 -27z"/>
<path d="M1574 843 c17 -33 38 -54 34 -31 -2 7 2 12 9 11 6 -1 17 5 25 15 12
15 11 16 -4 3 -10 -7 -18 -10 -18 -6 0 4 -7 2 -15 -5 -8 -7 -15 -8 -15 -3 0 5
-7 18 -15 29 -14 17 -14 16 -1 -13z"/>
<path d="M1679 573 c-13 -16 -12 -17 4 -4 16 13 21 21 13 21 -2 0 -10 -8 -17
-17z"/>
<path d="M1555 533 c0 -10 6 -27 13 -38 11 -18 12 -17 7 9 -5 33 -23 57 -20
29z"/>
<path d="M1646 535 c-11 -8 -15 -15 -9 -15 6 0 16 7 23 15 16 19 11 19 -14 0z"/>
</g>
</svg>
